<svg height="12" viewBox="0 0 7 12" width="7" xmlns="http://www.w3.org/2000/svg"><g fill="none" fill-rule="evenodd"><path d="m6.52701815 6.5h-6.05496434c-.34560299 0-.57370096.24356546-.4266626.45533921l3.02748218 4.36110359c.09626893.1148681.2558132.1835572.42634841.1835572s.33007947-.0686891.42634841-.1835572l3.02999565-4.36110359c.14515325-.21177375-.08294472-.45533921-.42854771-.45533921z" fill="#808794"/><path d="m6.52701815 0h-6.05496434c-.34560299 0-.57370096.24356546-.4266626.45533921l3.02748218 4.36110358c.09626893.11486808.2558132.18355721.42634841.18355721s.33007947-.06868913.42634841-.18355721l3.02999565-4.36110358c.14515325-.21177375-.08294472-.45533921-.42854771-.45533921z" fill="#ededed" transform="matrix(-1 0 0 -1 7 5)"/></g></svg>